<?xml version="1.0" encoding="utf-8"?>
<!-- Generator: Adobe Illustrator 23.1.0, SVG Export Plug-In . SVG Version: 6.00 Build 0)  -->
<svg version="1.1" id="Слой_1" xmlns="http://www.w3.org/2000/svg" xmlns:xlink="http://www.w3.org/1999/xlink" x="0px" y="0px"
	 viewBox="0 0 55 55" style="enable-background:new 0 0 55 55;" xml:space="preserve">
<style type="text/css">
	.st0{fill:#9D70A7;}
	.st1{clip-path:url(#SVGID_2_);}
</style>
<g>
	<path class="st0" d="M27.5,55C12.3,55,0,42.7,0,27.5C0,12.3,12.3,0,27.5,0C42.7,0,55,12.3,55,27.5C55,42.7,42.7,55,27.5,55z
		 M27.5,3C14,3,3,14,3,27.5C3,41,14,52,27.5,52C41,52,52,41,52,27.5C52,14,41,3,27.5,3z"/>
</g>
<g>
	<defs>
		<rect id="SVGID_1_" x="11" y="13" width="33" height="33"/>
	</defs>
	<clipPath id="SVGID_2_">
		<use xlink:href="#SVGID_1_"  style="overflow:visible;"/>
	</clipPath>
	<g class="st1">
		<path class="st0" d="M28.5,13c-2.1,0-3.9,1.8-3.9,3.9s1.8,3.9,3.9,3.9c2.1,0,3.9-1.8,3.9-3.9S30.6,13,28.5,13z"/>
		<path class="st0" d="M32.8,20.9c-1.1,1.2-2.6,1.9-4.3,1.9c-1.7,0-3.3-0.8-4.4-1.9c-0.9,1-1.5,2.4-1.5,3.9v1c0,0.5,0.4,1,1,1h9.7
			c0.5,0,1-0.4,1-1v-1C34.3,23.2,33.7,21.9,32.8,20.9z"/>
		<path class="st0" d="M20.3,42.7l-4.9-9.9c-0.5-1-1.6-1.3-2.6-0.9l-1.3,0.6c-0.5,0.2-0.7,0.8-0.4,1.3l5.8,11.6
			c0.2,0.5,0.8,0.7,1.3,0.4l1.3-0.6C20.4,44.8,20.8,43.6,20.3,42.7z"/>
		<path class="st0" d="M43.2,29c-0.8-0.6-1.9-0.5-2.6,0.3l-5.3,6.5c-0.4,0.4-1.1,0.6-1.4,0.6h-4.5c-0.5,0-1-0.4-1-1c0-0.5,0.4-1,1-1
			c1.3,0,2.7,0,3.9,0c1.1,0,1.9-0.9,1.9-1.9c0-1.1-0.9-1.9-1.9-1.9c-4.5,0-0.2,0-5.1,0c-0.5,0-0.7-0.3-1.1-0.6c-1.5-1.3-3.7-2-6-1.5
			c-1.3,0.3-2.1,0.8-3,1.5l0,0l-1.4,1.2l5.5,11h1.6h9.4c1.8,0,3.6-0.9,4.6-2.3l5.7-8.1C44.3,30.8,44.1,29.6,43.2,29z"/>
	</g>
</g>
</svg>
