<?xml version="1.0" encoding="utf-8"?>
<!-- Generator: Adobe Illustrator 23.1.0, SVG Export Plug-In . SVG Version: 6.00 Build 0)  -->
<svg version="1.1" id="Слой_1" xmlns="http://www.w3.org/2000/svg" xmlns:xlink="http://www.w3.org/1999/xlink" x="0px" y="0px"
	 viewBox="0 0 55 55" style="enable-background:new 0 0 55 55;" xml:space="preserve">
<style type="text/css">
	.st0{fill:#9D70A7;}
	.st1{clip-path:url(#SVGID_2_);}
</style>
<g>
	<path class="st0" d="M27.5,55C12.3,55,0,42.7,0,27.5C0,12.3,12.3,0,27.5,0C42.7,0,55,12.3,55,27.5C55,42.7,42.7,55,27.5,55z
		 M27.5,3C14,3,3,14,3,27.5C3,41,14,52,27.5,52C41,52,52,41,52,27.5C52,14,41,3,27.5,3z"/>
</g>
<g>
	<defs>
		<rect id="SVGID_1_" x="13" y="12" width="31" height="31"/>
	</defs>
	<clipPath id="SVGID_2_">
		<use xlink:href="#SVGID_1_"  style="overflow:visible;"/>
	</clipPath>
	<g class="st1">
		<path class="st0" d="M15,23.4c0.2,0.6,0.4,1.1,0.7,1.6l-0.8,1c-0.3,0.3-0.2,0.8,0.1,1.1l1.4,1.4c0.3,0.3,0.8,0.3,1.1,0.1l1-0.8
			c0.5,0.3,1.1,0.5,1.7,0.7l0.2,1.3c0,0.4,0.4,0.7,0.8,0.7h2c0.4,0,0.8-0.3,0.8-0.7l0.1-1.3c0.6-0.2,1.2-0.4,1.8-0.7l1,0.8
			c0.3,0.3,0.8,0.2,1.1-0.1l1.4-1.4c0.3-0.3,0.3-0.8,0.1-1.1l-0.8-1c0.3-0.6,0.6-1.1,0.7-1.8l1.2-0.1c0.4,0,0.7-0.4,0.7-0.8v-2
			c0-0.4-0.3-0.8-0.7-0.8l-1.2-0.1c-0.2-0.6-0.4-1.2-0.7-1.7l0.7-0.9c0.3-0.3,0.2-0.8-0.1-1.1L28,14.2c-0.3-0.3-0.8-0.3-1.1-0.1
			L26,14.8c-0.6-0.3-1.2-0.6-1.8-0.8l-0.1-1.1c0-0.4-0.4-0.7-0.8-0.7h-2c-0.4,0-0.8,0.3-0.8,0.7L20.3,14c-0.7,0.2-1.3,0.4-1.9,0.8
			l-0.9-0.7c-0.3-0.3-0.8-0.2-1.1,0.1L15,15.6c-0.3,0.3-0.3,0.8-0.1,1.1l0.8,1c-0.3,0.6-0.5,1.1-0.7,1.8l-1.2,0.1
			c-0.4,0-0.7,0.4-0.7,0.8v2c0,0.4,0.3,0.8,0.7,0.8L15,23.4z M22.2,18c1.8,0,3.3,1.5,3.3,3.3c0,1.8-1.5,3.3-3.3,3.3
			c-1.8,0-3.3-1.5-3.3-3.3C18.9,19.5,20.4,18,22.2,18z"/>
		<path class="st0" d="M41.9,23.8l-1-0.9c-0.3-0.3-0.8-0.3-1.1,0l-0.6,0.5c-0.5-0.2-1-0.4-1.5-0.5l-0.2-0.8
			c-0.1-0.4-0.5-0.7-0.9-0.7l-1.4,0.1c-0.4,0-0.7,0.4-0.8,0.8l0,0.8c-0.5,0.2-1,0.4-1.5,0.8l-0.7-0.5c-0.4-0.2-0.8-0.2-1.1,0.2
			l-0.9,1.1c-0.3,0.3-0.3,0.8,0,1.1l0.6,0.6c-0.2,0.5-0.4,1-0.4,1.5l-0.9,0.2c-0.4,0.1-0.7,0.5-0.7,0.9l0.1,1.4
			c0,0.4,0.4,0.7,0.8,0.8l0.9,0c0.2,0.4,0.4,0.9,0.7,1.3l-0.5,0.8c-0.2,0.4-0.2,0.8,0.2,1.1l1,0.9c0.3,0.3,0.8,0.3,1.1,0l0.7-0.6
			c0.4,0.2,0.9,0.4,1.4,0.5l0.2,0.9c0.1,0.4,0.5,0.7,0.9,0.7l1.4-0.1c0.4,0,0.7-0.4,0.8-0.8l0-0.9c0.5-0.2,1-0.4,1.4-0.7l0.8,0.5
			c0.4,0.2,0.8,0.2,1.1-0.2l0.9-1c0.3-0.3,0.3-0.8,0-1.1L42,31.7c0.2-0.5,0.4-1,0.5-1.5l0.8-0.2c0.4-0.1,0.7-0.5,0.7-0.9l-0.1-1.4
			c0-0.4-0.4-0.7-0.8-0.8l-0.8,0c-0.2-0.5-0.4-0.9-0.7-1.4l0.5-0.7C42.2,24.6,42.2,24.1,41.9,23.8z M36.7,31.7
			c-1.5,0.1-2.8-1-2.9-2.5c-0.1-1.5,1-2.8,2.5-2.9c1.5-0.1,2.8,1,2.9,2.5C39.3,30.3,38.2,31.6,36.7,31.7z"/>
		<path class="st0" d="M19.8,35.4c-0.4,0-0.7,0.4-0.7,0.8l0,0.8c0,0.4,0.3,0.8,0.7,0.8l0.6,0.1c0.1,0.4,0.2,0.7,0.4,1.1l-0.4,0.5
			c-0.3,0.3-0.2,0.8,0,1.1l0.6,0.6c0.3,0.3,0.8,0.3,1.1,0.1l0.5-0.4c0.3,0.2,0.7,0.4,1.1,0.5l0.1,0.6c0,0.4,0.4,0.7,0.8,0.7l0.8,0
			c0.4,0,0.8-0.3,0.8-0.7l0.1-0.6c0.4-0.1,0.8-0.3,1.2-0.5l0.5,0.4c0.3,0.3,0.8,0.2,1.1,0l0.6-0.6c0.3-0.3,0.3-0.8,0.1-1.1l-0.4-0.5
			c0.2-0.4,0.4-0.8,0.5-1.2l0.6-0.1c0.4,0,0.7-0.4,0.7-0.8l0-0.8c0-0.4-0.3-0.8-0.7-0.8l-0.5-0.1c-0.1-0.4-0.3-0.8-0.5-1.2l0.3-0.4
			c0.3-0.3,0.2-0.8,0-1.1l-0.6-0.6c-0.3-0.3-0.8-0.3-1.1-0.1l-0.4,0.3c-0.4-0.2-0.8-0.4-1.2-0.5l-0.1-0.5c0-0.4-0.4-0.7-0.8-0.7
			l-0.8,0c-0.4,0-0.8,0.3-0.8,0.7L24,31.8c-0.4,0.1-0.9,0.3-1.3,0.5L22.3,32c-0.3-0.3-0.8-0.2-1.1,0l-0.6,0.6
			c-0.3,0.3-0.3,0.8-0.1,1.1l0.4,0.5c-0.2,0.4-0.4,0.8-0.5,1.2L19.8,35.4z M25.2,34.5c1.2,0,2.2,1,2.2,2.2c0,1.2-1,2.2-2.2,2.2
			c-1.2,0-2.2-1-2.2-2.2C23,35.4,24,34.5,25.2,34.5z"/>
	</g>
</g>
</svg>
