<?xml version="1.0" encoding="utf-8"?>
<!-- Generator: Adobe Illustrator 23.1.0, SVG Export Plug-In . SVG Version: 6.00 Build 0)  -->
<svg version="1.1" id="Слой_1" xmlns="http://www.w3.org/2000/svg" xmlns:xlink="http://www.w3.org/1999/xlink" x="0px" y="0px"
	 viewBox="0 0 55 55" style="enable-background:new 0 0 55 55;" xml:space="preserve">
<style type="text/css">
	.st0{fill-rule:evenodd;clip-rule:evenodd;fill:#9D70A7;}
	.st1{fill:#9D70A7;}
</style>
<path class="st0" d="M19.4,17.2c0.1,4.3,1.6,8.5,4,10.8c2.7,3,7.1,2.1,9.7-1.3c2.5-3.3,2.4-6,2.4-9.9c0-3.9-4.1-6.7-7.7-5.6
	C23.2,10.1,19.4,12.4,19.4,17.2z M22.4,46.7c0,2.7-3.9,2.7-3.9,0.1c0-1.8,1,0,0-3c-0.9-2.8-1.2-7.4-0.4-10.3
	c0.1-0.4,0.3-0.9,0.3-1.3c-1.2,0.1-4.1,1.2-5,1.9c-0.7,0.5-1.2,0.9-1.6,1.8c-1.1,2.3-1.6,5.9-1.9,8.5c-0.2,2,1.9,2.2,1.9,4.4
	c0,0.5,0.7,1.2,1.3,1.2l10.3,3.1l11.4-0.2c0.4,0,4.5-1.8,4.6-2c0.4-0.7,1,0,0.9-0.7c-0.1-1.2,4.8-2.8,4.6-3.9
	c-0.1-0.6-0.1-1.1-0.2-1.6c0-0.6-0.2-1.2-0.2-1.7C44.4,41,44,39,43.4,37c-0.7-2.2-1.7-2.8-3.7-3.7c-0.6-0.3-2.2-0.9-2.9-0.9
	c0.3,0.7,0,3.9-0.2,4.4c3.5,1.9,2.5,4,2.4,6.5c-0.1,1.6-0.2,6.2-2.4,6.2c-0.5,0-1.7,0.1-1.7-0.6c0-0.9,0.5-0.6,1.3-0.7
	c0.6-0.1,0.6-0.3,0.7-0.4c0.6-0.9,0.7-3.3,0.8-4.5c0.1-1.3,0.5-2.6,0-3.7C36.9,38,34.5,37,32.8,39c-0.5,0.6-0.7,1.3-1,2.1
	c-0.6,1.8-1.5,3.3-1.5,5.1c0,1.4,1.3,0.3,1.3,1.8c0,1.1-2.7,0.4-2.7-1.7c0-1.4,0.8-3.3,1.3-4.7c0.2-0.5,0.4-0.9,0.5-1.5
	c0.3-1,0.7-1.9,1.5-2.5c0.9-0.8,1.4-1,3-1c0.4-1.6,0.5-3,0.1-4.7c-0.9-0.1-1.8-0.6-2.6-0.7c-0.2,0.7-0.5,1.5-0.7,2
	c-0.8,1.9-1.3,3.1-2.3,4.8L29.1,39c0-0.7-0.3-1.7-0.4-2.5c-0.3-2.2-0.1-0.9,0.3-2.3c-0.6-0.4-1.1-1-1.6-1.3c-0.6,0.3-1,0.9-1.7,1.3
	c0.7,1.5,0.5,1.2,0.2,2.9c-0.1,0.6-0.3,1.3-0.3,1.8c0,0,0-0.1-0.1-0.1l-0.4-0.7c-1-1.6-2.8-5.4-3-7c-0.3,0-1.8,0.4-2,0.7
	c-0.8,1.1-1.3,5.3-1.1,7c0.2,1.7,0.2,3.2,0.8,4.8c0.7,1.9-0.1,0.8,1.4,1.4C21.7,45.3,22.4,46,22.4,46.7z"/>
<g>
	<path class="st1" d="M27.5,55C12.3,55,0,42.7,0,27.5C0,12.3,12.3,0,27.5,0C42.7,0,55,12.3,55,27.5C55,42.7,42.7,55,27.5,55z
		 M27.5,3C14,3,3,14,3,27.5C3,41,14,52,27.5,52C41,52,52,41,52,27.5C52,14,41,3,27.5,3z"/>
</g>
</svg>
