<svg width="40" height="40" viewBox="0 0 40 40" fill="none" xmlns="http://www.w3.org/2000/svg">
<g clip-path="url(#clip0)">
<path d="M26.8167 20.6907C26.8167 20.3669 26.5542 20.1047 26.2307 20.1047C25.9072 20.1047 25.6448 20.3669 25.6448 20.6907C25.6448 21.0255 25.3723 21.298 25.0375 21.298C24.7027 21.298 24.4302 21.0255 24.4302 20.6907C24.4302 20.3669 24.1677 20.1047 23.8442 20.1047C23.5208 20.1047 23.2583 20.3669 23.2583 20.6907C23.2583 21.6718 24.0563 22.4699 25.0375 22.4699C26.0186 22.4699 26.8167 21.6715 26.8167 20.6907Z" fill="#9D70A7"/>
<path d="M32.2478 20.6907C32.2478 20.3669 31.9854 20.1047 31.6619 20.1047C31.3381 20.1047 31.0759 20.3669 31.0759 20.6907C31.0759 21.0255 30.8034 21.298 30.4686 21.298C30.1336 21.298 29.8613 21.0255 29.8613 20.6907C29.8613 20.3669 29.5989 20.1047 29.2754 20.1047C28.9516 20.1047 28.6895 20.3669 28.6895 20.6907C28.6895 21.6718 29.4875 22.4699 30.4686 22.4699C31.4495 22.4699 32.2478 21.6715 32.2478 20.6907Z" fill="#9D70A7"/>
<path d="M37.0292 34.2155L35.9754 33.7665C35.6776 33.6393 35.3336 33.7781 35.2067 34.0757C35.0797 34.3735 35.2183 34.7178 35.5161 34.8444L36.5699 35.2936C37.4357 35.6626 37.9954 36.5092 37.9954 37.4503V38.8282H17.5086V37.4503C17.5086 36.5092 18.0683 35.6626 18.934 35.2936L24.2096 33.0457C24.9399 32.7344 25.412 32.0203 25.412 31.2266V30.9568C26.171 31.2333 26.9617 31.3733 27.753 31.3733C28.5434 31.3733 29.3335 31.2336 30.0919 30.9574V31.2266C30.0919 32.0203 30.5637 32.7344 31.2943 33.0457L33.0066 33.7754C33.3042 33.9023 33.6484 33.7635 33.7754 33.4659C33.9023 33.1681 33.7638 32.8242 33.4659 32.6972L31.7536 31.9675C31.456 31.8409 31.2638 31.5497 31.2638 31.2266V30.4477C33.4482 29.3567 35.1475 27.6975 36.3239 25.5033C37.0374 24.1721 37.5468 22.6709 37.8464 21.0242C38.0509 20.9226 38.2099 20.7862 38.2847 20.7157C39.9543 19.2078 39.701 14.4888 39.6662 13.9496C39.4538 11.0617 38.5264 9.55231 37.5443 7.9541C37.4366 7.77893 37.3279 7.60223 37.2193 7.42157C37.1946 7.38067 37.1873 7.33093 37.1995 7.28546L37.3203 6.8338C37.4158 6.47674 37.3591 6.0913 37.1641 5.77636C36.1466 4.13146 34.8502 2.73009 33.3115 1.61192C31.215 0.0881734 28.5242 -0.391564 26.1136 0.328347C22.1347 1.5164 21.6553 4.86358 21.6147 5.23009C21.5488 5.61614 21.5357 5.99029 21.5674 6.35192C20.8325 6.57287 20.1651 6.88506 19.5749 7.28851C18.4909 8.02978 18.1977 8.66089 18.1543 9.86115C18.1543 9.86511 18.1537 9.86908 18.1537 9.87335C18.1537 9.87702 18.1534 9.88495 18.1534 9.89502C18.1497 10.011 18.1482 10.1321 18.1485 10.2594C17.6306 10.1331 17.135 10.3329 16.7734 10.82C16.4758 11.2207 15.957 12.2745 15.8255 14.8294C15.77 15.91 15.8475 16.9553 16.0559 17.9367C16.2436 18.8217 16.6239 19.6393 17.2519 20.5097C17.3523 20.6488 17.482 20.7559 17.6276 20.8277C17.7796 21.7163 17.9914 22.5693 18.2645 23.3753C18.3682 23.6817 18.7012 23.8462 19.0073 23.7421C19.314 23.6383 19.4782 23.3057 19.3744 22.999C19.1211 22.2519 18.9249 21.4588 18.7836 20.6314C18.9063 20.5075 18.9981 20.351 19.0467 20.1721C19.541 18.3463 20.0635 16.9559 21.1396 15.6668C22.0752 14.5459 23.3179 13.6462 24.7333 13.0652L24.7861 13.0435C25.3022 12.832 25.9735 12.5559 26.5906 12.1741C27.8132 12.8491 28.8068 13.2251 28.9209 13.2675C30.9507 14.0231 33.7192 15.4248 35.3815 17.8095C36.3676 19.2243 36.5 20.3351 36.5009 20.343C36.5034 20.3665 36.507 20.39 36.5122 20.4132C36.5513 20.5878 36.6166 20.7202 36.6923 20.8213C36.4142 22.3447 35.9461 23.7287 35.2912 24.95C34.0793 27.2101 32.2507 28.8407 29.856 29.7956C28.5001 30.3367 27.0066 30.3364 25.6504 29.7956C23.4146 28.9042 21.6693 27.4213 20.4627 25.3885C20.2976 25.1102 19.9381 25.0187 19.6598 25.1838C19.3814 25.3489 19.2899 25.7087 19.455 25.9867C20.6153 27.9413 22.2223 29.4367 24.2405 30.4456V31.2266C24.2405 31.55 24.0482 31.8409 23.7506 31.9678L18.4748 34.2158C17.1762 34.769 16.337 36.0386 16.337 37.4503V39.4141C16.337 39.7376 16.5994 40.0001 16.9229 40.0001H38.5816C38.9051 40.0001 39.1676 39.7376 39.1676 39.4141V37.4503C39.1672 36.0386 38.328 34.7687 37.0292 34.2155ZM24.3412 11.9589L24.2881 11.9809C22.6969 12.634 21.297 13.649 20.2396 14.9158C18.989 16.4139 18.4168 18.067 18.0051 19.5392C17.5882 18.909 17.3367 18.3286 17.2019 17.6932C17.0148 16.8115 16.9455 15.8682 16.9959 14.8895C17.0764 13.3206 17.3584 11.9974 17.7139 11.5186C17.7878 11.4191 17.8256 11.3959 17.8562 11.3959C17.8684 11.3959 17.8797 11.3998 17.8916 11.4038C17.9907 11.4377 18.0902 11.4569 18.1888 11.4645C18.2263 12.1762 18.3011 12.9907 18.4506 13.606C18.5156 13.8739 18.7555 14.0537 19.0195 14.0537C19.0653 14.0537 19.1117 14.0485 19.158 14.0369C19.4727 13.9606 19.6655 13.6438 19.5893 13.3295C19.2984 12.1314 19.325 9.9115 19.3253 9.88892C19.3253 9.88556 19.325 9.8819 19.325 9.87854C19.3552 9.00177 19.5413 8.73077 20.2362 8.25561C20.7056 7.93487 21.2378 7.68219 21.8262 7.49725C22.4329 9.1629 23.9511 10.5057 25.43 11.4758C25.0364 11.6739 24.6439 11.835 24.3412 11.9589ZM29.329 12.1689C29.3103 12.1619 27.4479 11.4639 25.698 10.2371C23.469 8.67462 22.4848 7.05108 22.7726 5.41167C22.775 5.39733 22.7771 5.38024 22.7787 5.3659C22.7887 5.26397 23.0258 3.18724 25.2076 1.9702C25.994 3.15245 27.3456 3.81377 28.6777 4.38903C30.0928 4.99968 31.3105 5.59234 31.8781 6.66015C31.9834 6.85851 32.186 6.97143 32.396 6.97143C32.4885 6.97143 32.5828 6.94915 32.6703 6.90276C32.9563 6.75079 33.0646 6.39617 32.913 6.11022C32.1061 4.59258 30.3931 3.85283 29.1422 3.31297C28.0094 2.82408 26.9443 2.31047 26.3108 1.49565C26.3568 1.48069 26.4014 1.46513 26.4487 1.45109C27.078 1.2631 27.7298 1.17094 28.3832 1.17094C29.8725 1.17094 31.3694 1.64885 32.6224 2.5598C34.0375 3.58824 35.2302 4.87792 36.1674 6.39281C36.193 6.43401 36.2006 6.48437 36.1881 6.53106L36.0673 6.98272C35.9736 7.33398 36.0276 7.71423 36.2156 8.02642C36.3261 8.20984 36.4362 8.38928 36.5458 8.5675C37.4903 10.1047 38.306 11.4322 38.4971 14.0302C38.6088 15.7752 38.4525 18.8086 37.5812 19.7641C37.2599 18.4317 35.7902 14.5746 29.329 12.1689Z" fill="#9D70A7"/>
<path d="M17.9054 28.9408C17.9606 28.7006 17.9377 28.455 17.844 28.2322L18.5743 27.7757C19.1325 27.4265 19.3025 26.6883 18.9534 26.1301L18.6833 25.6983L20.6932 24.2979C20.9587 24.1129 21.024 23.7476 20.8391 23.4821C20.6541 23.2166 20.2888 23.1516 20.0233 23.3362L18.061 24.7034L17.8218 24.3207C17.6524 24.0504 17.3884 23.8621 17.0774 23.7904C16.7668 23.7189 16.4466 23.7723 16.1763 23.9417L15.446 24.3983C15.2867 24.2164 15.0758 24.0885 14.8356 24.033C14.5335 23.9634 14.2222 24.0156 13.9595 24.1801L11.5016 25.7175C11.5016 25.7175 11.5013 25.7175 11.5013 25.7178C11.5013 25.7178 11.5013 25.7178 11.501 25.7178L9.04367 27.255C9.04337 27.255 9.04337 27.255 9.04337 27.255L4.90701 29.8423L4.47823 29.1566C4.30672 28.8822 3.94509 28.7989 3.67074 28.9707C3.39638 29.1422 3.31307 29.5039 3.48488 29.7782L4.22433 30.9605L4.73794 31.7817L3.52028 32.5434L3.42293 32.3878C3.11287 31.8916 2.45705 31.7405 1.96083 32.0509L0.967483 32.6722C0.727309 32.8224 0.559767 33.0573 0.496291 33.3335C0.432509 33.6097 0.480422 33.8941 0.630568 34.1343L2.60689 37.2938C2.75704 37.534 2.99202 37.7015 3.26821 37.765C3.34786 37.7833 3.42843 37.7925 3.50838 37.7925C3.70492 37.7925 3.89809 37.7375 4.06899 37.6307L5.06265 37.0094C5.55856 36.699 5.70962 36.0432 5.39926 35.547L5.30191 35.3916L6.51956 34.6299L7.77292 36.6337C7.884 36.8113 8.07474 36.909 8.27005 36.909C8.37625 36.909 8.48368 36.88 8.58042 36.8196C8.85477 36.648 8.93808 36.2864 8.76627 36.0121L8.3375 35.3266L12.4739 32.7393L17.3896 29.6644C17.6527 29.4999 17.8358 29.2429 17.9054 28.9408ZM3.54134 36.5785L1.68282 33.607L2.48818 33.1031L2.8376 33.6616L3.99758 35.5161L4.3467 36.0746L3.54134 36.5785ZM4.68057 34.398L4.14193 33.5368L5.35928 32.7754L5.89792 33.6363L4.68057 34.398ZM7.71585 34.333L6.04226 31.6569L5.52865 30.8357L6.9935 29.9195L7.63162 30.9394C7.74271 31.117 7.93375 31.2147 8.12906 31.2147C8.23496 31.2147 8.34238 31.186 8.43912 31.1253C8.71347 30.9538 8.79679 30.5921 8.62528 30.3178L7.98715 29.2979L9.16819 28.5593L11.3557 32.0564L7.71585 34.333ZM12.349 31.435L10.1618 27.9377L11.6258 27.0219L12.2639 28.0421C12.375 28.2197 12.5657 28.3173 12.761 28.3173C12.8672 28.3173 12.9747 28.2883 13.0714 28.2279C13.3457 28.0564 13.4291 27.6948 13.2572 27.4204L12.6194 26.4005L14.5713 25.1795L14.8536 25.6303L16.5535 28.3482C16.5535 28.3485 16.5538 28.3485 16.5538 28.3488L16.7588 28.6768L12.349 31.435ZM16.0814 25.3834L16.7976 24.9351C16.8 24.9335 16.8052 24.9305 16.8141 24.9323C16.8229 24.9345 16.8263 24.9396 16.8278 24.9424L17.9597 26.7518C17.9612 26.7542 17.9646 26.7594 17.9625 26.7683C17.9606 26.7771 17.9554 26.7805 17.9527 26.782L17.2364 27.23L16.0814 25.3834Z" fill="#9D70A7"/>
</g>
<defs>
<clipPath id="clip0">
<rect width="40" height="40" fill="white"/>
</clipPath>
</defs>
</svg>
