<svg width="40" height="40" viewBox="0 0 40 40" fill="none" xmlns="http://www.w3.org/2000/svg">
<path d="M20.5076 20.321L20.7458 20.0828C20.9746 19.8539 20.9746 19.483 20.7458 19.2542C20.5169 19.0254 20.1459 19.0254 19.9171 19.2542L19.6789 19.4924L18.4191 18.2326C18.1902 18.0038 17.8193 18.0038 17.5905 18.2326L15.7727 20.0504L15.0709 19.3487C14.842 19.1199 14.4711 19.1199 14.2423 19.3487L9.68055 23.9103C9.45172 24.1392 9.45172 24.5102 9.68055 24.739C9.90945 24.9677 10.2804 24.9678 10.5092 24.739L12.8709 22.3774L17.6226 27.1291L10.6498 34.1018C10.421 34.3307 10.421 34.7017 10.6498 34.9305C10.7643 35.0449 10.9143 35.1021 11.0642 35.1021C11.2141 35.1021 11.3641 35.0449 11.4786 34.9305L15.9959 30.4131L16.953 31.3702L10.6709 37.6524C10.284 38.0394 9.65438 38.0393 9.26734 37.6524L9.01195 37.3971L9.53555 36.8734C9.76437 36.6446 9.76437 36.2736 9.53547 36.0448C9.30672 35.816 8.9357 35.816 8.70687 36.0449L6.9557 37.7961L2.20391 33.0443L8.56945 26.6788C8.79828 26.4499 8.79828 26.079 8.56945 25.8502C8.34062 25.6215 7.96969 25.6213 7.74078 25.8502L0.960938 32.6299C0.851094 32.7399 0.789375 32.8888 0.789375 33.0443C0.789375 33.1998 0.851094 33.3487 0.960938 33.4587L1.66266 34.1604L0.402734 35.4203C0.143047 35.68 0 36.0253 0 36.3926C0 36.7599 0.143047 37.1053 0.402734 37.365L2.63484 39.5971C2.89461 39.8568 3.23992 39.9999 3.60727 39.9999C3.97453 39.9999 4.31984 39.8568 4.57961 39.5971L5.83938 38.3374L6.54109 39.0391C6.65102 39.1489 6.8 39.2106 6.95547 39.2106C7.11094 39.2106 7.25984 39.1489 7.36984 39.0391L8.18313 38.2257L8.43844 38.4811C8.86031 38.903 9.41461 39.114 9.96883 39.114C10.5231 39.114 11.0773 38.9031 11.4993 38.4811L18.1958 31.7845C18.4246 31.5556 18.4246 31.1847 18.1958 30.9559L16.8244 29.5845L20.6511 25.7577C20.8799 25.5288 20.8799 25.1578 20.6511 24.929L19.9494 24.2273L21.7672 22.4095C21.996 22.1806 21.996 21.8096 21.7672 21.5808L20.5076 20.321ZM3.75102 38.7685C3.6718 38.8478 3.54281 38.8478 3.46359 38.7685L1.23148 36.5363C1.15219 36.4571 1.15219 36.3281 1.23148 36.2489L2.49125 34.9892L5.01078 37.5087L3.75102 38.7685ZM18.4512 26.3005L13.6995 21.5488L14.6565 20.5917L19.4082 25.3434L18.4512 26.3005ZM19.1209 23.3987L16.6013 20.8792L18.0048 19.4756L20.5244 21.9953L19.1209 23.3987Z" fill="#9D70A7"/>
<path d="M9.21978 30.7801C9.56893 31.1294 10.0331 31.3217 10.527 31.3217C11.0207 31.3217 11.485 31.1294 11.8342 30.7802C12.5549 30.0594 12.5549 28.8867 11.8341 28.1658C11.1131 27.4451 9.94049 27.4451 9.21971 28.1658C8.87057 28.515 8.67822 28.9792 8.67822 29.473C8.6783 29.9669 8.87064 30.4312 9.21978 30.7801ZM10.0485 28.9945C10.1803 28.8626 10.3536 28.7966 10.527 28.7966C10.7003 28.7966 10.8736 28.8626 11.0055 28.9944C11.2694 29.2583 11.2694 29.6877 11.0055 29.9516C10.8777 30.0794 10.7077 30.1498 10.527 30.1498C10.3462 30.1498 10.1763 30.0794 10.0484 29.9516C9.92057 29.8237 9.85018 29.6538 9.85018 29.473C9.85018 29.2923 9.92057 29.1223 10.0485 28.9945Z" fill="#9D70A7"/>
<path d="M34.9747 4.19646L34.6433 4.52787C34.4145 4.75678 34.4145 5.12771 34.6433 5.35654C34.7578 5.47092 34.9078 5.5281 35.0577 5.5281C35.2076 5.5281 35.3576 5.47092 35.4721 5.35654L35.8035 5.02514C36.0323 4.79623 36.0323 4.42529 35.8035 4.19646C35.5745 3.96771 35.2035 3.96771 34.9747 4.19646Z" fill="#9D70A7"/>
<path d="M33.3972 5.7741L32.7175 6.45379C32.4887 6.6827 32.4887 7.05363 32.7175 7.28246C32.832 7.39684 32.982 7.45402 33.1319 7.45402C33.2818 7.45402 33.4318 7.39684 33.5463 7.28246L34.226 6.60277C34.4548 6.37387 34.4548 6.00293 34.226 5.7741C33.997 5.54535 33.6261 5.54535 33.3972 5.7741Z" fill="#9D70A7"/>
<path d="M21.8429 17.3285L21.1633 18.0082C20.9345 18.2371 20.9345 18.608 21.1633 18.8368C21.2778 18.9512 21.4278 19.0084 21.5777 19.0084C21.7276 19.0084 21.8776 18.9512 21.9921 18.8368L22.6717 18.1572C22.9005 17.9283 22.9005 17.5574 22.6717 17.3285C22.4428 17.0998 22.0718 17.0998 21.8429 17.3285Z" fill="#9D70A7"/>
<path d="M23.7687 15.4027L23.0891 16.0823C22.8603 16.3112 22.8603 16.6822 23.0891 16.911C23.2036 17.0254 23.3536 17.0825 23.5035 17.0825C23.6534 17.0825 23.8034 17.0254 23.9178 16.911L24.5975 16.2314C24.8263 16.0025 24.8263 15.6315 24.5975 15.4027C24.3686 15.174 23.9976 15.174 23.7687 15.4027Z" fill="#9D70A7"/>
<path d="M29.5461 9.62542L28.8664 10.3051C28.6376 10.534 28.6376 10.905 28.8664 11.1338C28.9809 11.2482 29.1309 11.3053 29.2808 11.3053C29.4307 11.3053 29.5807 11.2482 29.6952 11.1338L30.3749 10.4541C30.6037 10.2252 30.6037 9.85425 30.3749 9.62542C30.1459 9.39667 29.775 9.39667 29.5461 9.62542Z" fill="#9D70A7"/>
<path d="M31.4719 7.69988L30.7922 8.37957C30.5634 8.60848 30.5634 8.97941 30.7922 9.20824C30.9067 9.32262 31.0567 9.3798 31.2066 9.3798C31.3565 9.3798 31.5065 9.32262 31.621 9.20824L32.3007 8.52855C32.5295 8.29965 32.5295 7.92871 32.3007 7.69988C32.0718 7.47113 31.7008 7.47113 31.4719 7.69988Z" fill="#9D70A7"/>
<path d="M27.6199 11.5511L26.9402 12.2308C26.7113 12.4597 26.7113 12.8307 26.9402 13.0595C27.0546 13.1739 27.2046 13.2311 27.3545 13.2311C27.5045 13.2311 27.6545 13.1739 27.7689 13.0595L28.4486 12.3798C28.6774 12.1509 28.6774 11.78 28.4486 11.5511C28.2197 11.3225 27.8488 11.3225 27.6199 11.5511Z" fill="#9D70A7"/>
<path d="M25.6941 13.477L25.0144 14.1567C24.7856 14.3856 24.7856 14.7565 25.0144 14.9853C25.1288 15.0997 25.2788 15.1569 25.4288 15.1569C25.5787 15.1569 25.7287 15.0997 25.8431 14.9853L26.5228 14.3057C26.7517 14.0767 26.7517 13.7058 26.5228 13.477C26.2938 13.2482 25.9229 13.2482 25.6941 13.477Z" fill="#9D70A7"/>
<path d="M38.0721 0C37.0093 0 36.1445 0.864688 36.1445 1.92758C36.1445 2.99047 37.0092 3.85516 38.0721 3.85516C39.135 3.85516 39.9997 2.99039 39.9997 1.92758C39.9997 0.864766 39.135 0 38.0721 0ZM38.0721 2.68328C37.6554 2.68328 37.3164 2.3443 37.3164 1.92758C37.3164 1.51086 37.6554 1.17188 38.0721 1.17188C38.4888 1.17188 38.8278 1.51086 38.8278 1.92758C38.8278 2.3443 38.4888 2.68328 38.0721 2.68328Z" fill="#9D70A7"/>
<path d="M38.0723 5.20874C37.7486 5.20874 37.4863 5.47101 37.4863 5.79468V6.8996C37.4863 7.22327 37.7486 7.48554 38.0723 7.48554C38.3959 7.48554 38.6582 7.22327 38.6582 6.8996V5.79468C38.6582 5.47101 38.3959 5.20874 38.0723 5.20874Z" fill="#9D70A7"/>
<path d="M33.1006 2.51343H34.2055C34.5292 2.51343 34.7914 2.25116 34.7914 1.92749C34.7914 1.60382 34.5292 1.34155 34.2055 1.34155H33.1006C32.7769 1.34155 32.5146 1.60382 32.5146 1.92749C32.5146 2.25116 32.7769 2.51343 33.1006 2.51343Z" fill="#9D70A7"/>
</svg>
