<?xml version="1.0" encoding="utf-8"?>
<!-- Generator: Adobe Illustrator 23.1.0, SVG Export Plug-In . SVG Version: 6.00 Build 0)  -->
<svg version="1.1" id="Слой_1" xmlns="http://www.w3.org/2000/svg" xmlns:xlink="http://www.w3.org/1999/xlink" x="0px" y="0px"
	 viewBox="0 0 55 55" style="enable-background:new 0 0 55 55;" xml:space="preserve">
<style type="text/css">
	.st0{fill:#9D70A7;}
	.st1{clip-path:url(#SVGID_2_);}
</style>
<g>
	<path class="st0" d="M27.5,55C12.3,55,0,42.7,0,27.5C0,12.3,12.3,0,27.5,0C42.7,0,55,12.3,55,27.5C55,42.7,42.7,55,27.5,55z
		 M27.5,3C14,3,3,14,3,27.5C3,41,14,52,27.5,52C41,52,52,41,52,27.5C52,14,41,3,27.5,3z"/>
</g>
<g>
	<defs>
		<rect id="SVGID_1_" x="13" y="15" width="30" height="30"/>
	</defs>
	<clipPath id="SVGID_2_">
		<use xlink:href="#SVGID_1_"  style="overflow:visible;"/>
	</clipPath>
	<g class="st1">
		<path class="st0" d="M42.9,38.8c0,0-0.1-0.1-0.2-0.1c-0.1,0-0.1,0-0.2,0c-0.1,0-0.1,0-0.2,0c-0.1,0-0.1,0.1-0.2,0.1l-1.4,1.4
			c-0.3-0.3-0.9-0.9-1.8-1.8l1-1c0.1-0.1,0.1-0.2,0.1-0.3c0-0.1,0-0.2-0.1-0.3c-0.1-0.1-0.2-0.1-0.3-0.1c-0.1,0-0.2,0-0.3,0.1
			l-0.6,0.6l-2.2-2.2L35.8,36c-0.1,0.1-0.2,0.1-0.3,0.1c-0.1,0-0.2,0-0.3-0.1C35,35.9,35,35.7,35,35.6c0-0.1,0-0.2,0.1-0.3l0.8-0.8
			l-0.7-0.7c-1.5,1.5-1.5,1.6-1.8,1.6c-0.1,0-0.2,0-0.3-0.1c-0.1-0.1-0.1-0.1-0.2-0.2c0-0.1,0-0.2,0-0.3c0-0.1,0.1-0.2,0.1-0.2
			l1.5-1.5L34,32.5c-0.8,0.8-0.9,1-1.2,1c-0.1,0-0.2,0-0.3-0.1c-0.1-0.1-0.1-0.1-0.2-0.2c0-0.1,0-0.2,0-0.3c0-0.1,0.1-0.2,0.1-0.2
			l0.8-0.8l-0.7-0.7c-1.5,1.5-1.5,1.6-1.8,1.6c-0.1,0-0.2,0-0.3-0.1c-0.1-0.1-0.1-0.1-0.2-0.2c0-0.1,0-0.2,0-0.3
			c0-0.1,0.1-0.2,0.1-0.2l1.5-1.5l-0.7-0.7l-0.8,0.8c0,0-0.1,0.1-0.2,0.1c-0.1,0-0.1,0-0.2,0c-0.1,0-0.1,0-0.2,0
			c-0.1,0-0.1-0.1-0.2-0.1c0,0-0.1-0.1-0.1-0.2c0-0.1,0-0.1,0-0.2c0-0.1,0-0.1,0-0.2c0-0.1,0.1-0.1,0.1-0.2l0.8-0.8l-1.4-1.4
			c0,0-0.1-0.1-0.2-0.1c-0.1,0-0.1,0-0.2,0c-0.1,0-0.1,0-0.2,0c-0.1,0-0.1,0.1-0.2,0.1l-0.7,0.7c-1-1-1.4-1.4-1.6-1.6l-0.7,0.7
			c0,0-1.3-1.3-5.3-5.3C20.2,22,20.1,22,20,22c-0.1,0-0.2,0-0.3,0.1c-0.1,0.1-0.1,0.2-0.1,0.3c0,0.1,0,0.2,0.1,0.3
			c4.1,4.1,5.3,5.3,5.3,5.3l-0.7,0.7l1.6,1.6l-0.7,0.7c0,0-0.1,0.1-0.1,0.2c0,0.1,0,0.1,0,0.2c0,0.1,0,0.1,0,0.2
			c0,0.1,0.1,0.1,0.1,0.2l1.1,1.1h3c0.5,0,1,0.2,1.3,0.5c0.4,0.4,0.5,0.8,0.5,1.3v3l3.5,3.5l-0.1,0.1c-0.1,0.1-0.1,0.2-0.1,0.3
			c0,0.1,0,0.2,0.1,0.3c0.1,0.1,0.2,0.1,0.3,0.1c0.1,0,0.2,0,0.3-0.1l0.9-0.9l1.8,1.8l-1.3,1.3c-0.1,0.1-0.1,0.2-0.1,0.3
			c0,0.1,0,0.2,0.1,0.3c0.1,0.1,0.2,0.1,0.3,0.1c0.1,0,0.2,0,0.3-0.1l5.3-5.3c0,0,0.1-0.1,0.1-0.2c0-0.1,0-0.1,0-0.2
			c0-0.1,0-0.1,0-0.2C42.9,38.9,42.9,38.9,42.9,38.8z"/>
		<path class="st0" d="M16,31.4c-1.6,0-3-1.3-3-2.8c0-2.1,0.9-3.9,2.5-5.2c0.7-0.6,1.6-1.1,2.5-1.4c0.5-0.2,0.8,0.5,0.4,0.8
			c0,0-0.3,0.3-0.4,1.1c-0.3,1.7,0.9,3.9,0.9,4.1C19.5,29.6,18.4,31.4,16,31.4z"/>
		<path class="st0" d="M18.2,20.6c0-0.1-0.6-1.2-3.4-1.5c-1.3-0.2-2.3-1.6-1.5-3.1c0.5-1,1.9-1.3,2.9-0.7c1.7,0.9,2.4,2.3,2.7,3.3
			c0.3,1.1,0.2,1.9,0.2,1.9C19,21,18.3,21,18.2,20.6z"/>
		<path class="st0" d="M20.9,20.2c0.2-0.1,0.5-0.9-0.3-2.8c-0.4-1.1,0.4-2.5,2.2-2.4c1.1,0.1,2,1,2,2.1c-0.1,1.8-1.1,2.8-1.9,3.3
			c-0.5,0.3-1.1,0.5-1.7,0.6C20.6,21.2,20.4,20.4,20.9,20.2z"/>
		<path class="st0" d="M30.7,38.6l-1.3-1.3v-0.7h0.9v-1.9c0-0.2-0.1-0.5-0.3-0.7c-0.2-0.2-0.4-0.3-0.7-0.3h-4.7
			c-0.2,0-0.5,0.1-0.7,0.3c-0.2,0.2-0.3,0.4-0.3,0.7v1.9h0.9v0.7l-1.3,1.3c0,0-0.1,0.1-0.1,0.2c0,0.1,0,0.1,0,0.2v4.7
			c0,0.4,0.1,0.7,0.4,1s0.6,0.4,1,0.4h4.7c0.4,0,0.7-0.1,1-0.4s0.4-0.6,0.4-1v-4.7c0-0.1,0-0.1,0-0.2C30.8,38.7,30.7,38.6,30.7,38.6
			z M29.9,43.6c0,0.1,0,0.2-0.1,0.3c-0.1,0.1-0.2,0.1-0.3,0.1h-4.7c-0.1,0-0.2,0-0.3-0.1c-0.1-0.1-0.1-0.2-0.1-0.3v-3.8h5.6V43.6z"
			/>
	</g>
</g>
</svg>
