<?xml version="1.0" encoding="utf-8"?>
<!-- Generator: Adobe Illustrator 23.1.0, SVG Export Plug-In . SVG Version: 6.00 Build 0)  -->
<svg version="1.1" id="Слой_1" xmlns="http://www.w3.org/2000/svg" xmlns:xlink="http://www.w3.org/1999/xlink" x="0px" y="0px"
	 viewBox="0 0 55 55" style="enable-background:new 0 0 55 55;" xml:space="preserve">
<style type="text/css">
	.st0{fill:#9D70A7;}
</style>
<g>
	<path class="st0" d="M19.5,32.6c1,0,2-0.1,2.9-0.2V22.2c-0.9-0.1-1.9-0.2-2.9-0.2C13.7,22,9,24.2,9,26.8v1
		C9,30.4,13.7,32.6,19.5,32.6z"/>
</g>
<g>
	<path class="st0" d="M19.5,37.9c1,0,2-0.1,2.9-0.2v-3c-0.9,0.1-1.9,0.2-2.9,0.2c-5,0-9.3-1.6-10.2-3.8c-0.1,0.3-0.2,0.6-0.2,1v1
		C9,35.7,13.7,37.9,19.5,37.9z"/>
</g>
<g>
	<path class="st0" d="M22.4,40.2V40c-0.9,0.1-1.9,0.2-2.9,0.2c-5,0-9.3-1.6-10.2-3.8C9.1,36.7,9,37,9,37.4v1c0,2.6,4.7,4.7,10.5,4.7
		c1.2,0,2.3-0.1,3.3-0.2c-0.3-0.5-0.4-1.1-0.4-1.7V40.2z"/>
</g>
<g>
	<path class="st0" d="M34.5,14C28.7,14,24,16.1,24,18.7v1c0,2.6,4.7,4.7,10.5,4.7S45,22.3,45,19.7v-1C45,16.1,40.3,14,34.5,14z"/>
</g>
<g>
	<path class="st0" d="M34.5,26.8c-5,0-9.3-1.6-10.2-3.8c-0.1,0.3-0.2,0.6-0.2,1v1c0,2.6,4.7,4.7,10.5,4.7s10.5-2.1,10.5-4.7v-1
		c0-0.3-0.1-0.7-0.2-1C43.8,25.2,39.6,26.8,34.5,26.8z"/>
</g>
<g>
	<path class="st0" d="M34.5,32.1c-5,0-9.3-1.6-10.2-3.8c-0.1,0.3-0.2,0.6-0.2,1v1c0,2.6,4.7,4.7,10.5,4.7s10.5-2.1,10.5-4.7v-1
		c0-0.3-0.1-0.7-0.2-1C43.8,30.5,39.6,32.1,34.5,32.1z"/>
</g>
<g>
	<path class="st0" d="M34.5,37.7c-5,0-9.3-1.6-10.2-3.8c-0.1,0.3-0.2,0.6-0.2,1v1c0,2.6,4.7,4.7,10.5,4.7s10.5-2.1,10.5-4.7v-1
		c0-0.3-0.1-0.7-0.2-1C43.8,36.1,39.6,37.7,34.5,37.7z"/>
</g>
<g>
	<path class="st0" d="M34.5,43c-5,0-9.3-1.6-10.2-3.8c-0.1,0.3-0.2,0.6-0.2,1v1c0,2.6,4.7,4.7,10.5,4.7s10.5-2.1,10.5-4.7v-1
		c0-0.3-0.1-0.7-0.2-1C43.8,41.4,39.6,43,34.5,43z"/>
</g>
<g>
	<path class="st0" d="M27.5,55C12.3,55,0,42.7,0,27.5S12.3,0,27.5,0S55,12.3,55,27.5S42.7,55,27.5,55z M27.5,3C14,3,3,14,3,27.5
		S14,52,27.5,52S52,41,52,27.5S41,3,27.5,3z"/>
</g>
</svg>
