<svg width="40" height="40" viewBox="0 0 40 40" fill="none" xmlns="http://www.w3.org/2000/svg">
<g clip-path="url(#clip0)">
<path d="M35.5201 4.66779H34.6673V3.33456C34.6652 1.49461 33.1742 0.00363135 31.3342 0.00146484H8.66923C6.82928 0.00363135 5.33831 1.49461 5.33614 3.33456V4.66779H4.48329C2.00897 4.66771 0.0031131 6.67348 0.00302977 9.14771C0.00302977 10.294 0.442414 11.3968 1.23086 12.2291L5.33606 16.5621V23.9997H6.66929V17.9697L12.039 23.6377L13.191 31.7017C13.2732 32.2796 13.2027 32.869 12.9862 33.4111L12.5833 34.4182L13.8208 34.913L14.2241 33.9059C14.5273 33.147 14.6261 32.3219 14.5106 31.5128L13.3286 23.2384C13.3091 23.1019 13.2476 22.9748 13.1529 22.8745L2.19895 11.3126C1.00354 10.051 1.0572 8.05913 2.31878 6.86371C2.90332 6.30984 3.67801 6.00111 4.48329 6.00111H10.1763C11.1594 7.19994 12.7934 7.64541 14.2489 7.11136C14.3359 7.39593 14.4462 7.67282 14.5789 7.93914L14.9431 8.66758H6.00268C5.63454 8.66767 5.33614 8.96614 5.33614 9.33428C5.33614 9.52452 5.41755 9.70576 5.55971 9.83225L11.5593 15.1652C11.6813 15.2739 11.8389 15.3338 12.0022 15.3338H15.7419C16.6196 15.3285 17.3313 14.6211 17.3418 13.7434L17.3528 11.2106C18.663 10.9313 19.8125 10.1516 20.5564 9.03739C20.7328 8.77308 20.6979 8.42085 20.473 8.19628L19.8279 7.55116C19.4734 7.19619 19.4739 6.62115 19.8288 6.26667C19.999 6.09677 20.2296 6.00128 20.47 6.00111H21.3349C21.703 6.00111 22.0015 5.70263 22.0015 5.33449V1.61526C23.1354 2.06523 24.1047 3.01058 24.4421 4.07667L24.8744 5.54923C24.8942 5.62855 24.9284 5.70355 24.9752 5.77054L26.3644 7.75032L25.7228 8.07129C25.497 8.18429 25.3544 8.4151 25.3544 8.66758V10.6674C25.3541 11.0354 25.0558 11.3337 24.6878 11.3341H22.6681C22.3 11.3341 22.0015 11.6325 22.0015 12.0007V13.7339C22.0027 14.617 22.7183 15.3326 23.6014 15.3338H28.0011C28.1644 15.3338 28.322 15.2739 28.444 15.1652L34.4436 9.83225C34.7187 9.58752 34.7432 9.16621 34.4986 8.89115C34.3721 8.74899 34.191 8.66767 34.0006 8.66758H27.5119L27.6524 8.59725C27.9818 8.43227 28.1151 8.03146 27.9502 7.70199C27.9356 7.67282 27.9188 7.64482 27.9002 7.61816L26.7657 6.00111H35.52C37.2581 6.00111 38.667 7.41001 38.667 9.14805C38.667 9.95332 38.3582 10.728 37.8044 11.3126L26.8505 22.8748C26.7556 22.975 26.6942 23.1021 26.6748 23.2387L25.4928 31.5131C25.3773 32.3221 25.4761 33.1473 25.7793 33.9062L27.6832 38.6653H11.0044C11.208 38.4742 11.3934 38.2645 11.5583 38.039C12.1541 37.22 12.1541 36.1102 11.5583 35.2912C11.0815 34.6335 10.4401 34.1126 9.69857 33.7809C9.92722 33.5891 10.1309 33.3693 10.3048 33.1266C10.7943 32.4549 10.7943 31.544 10.3048 30.8723C9.97505 30.4152 9.54308 30.0414 9.04337 29.7807C9.27052 29.5877 9.47242 29.3668 9.64433 29.1233C10.125 28.4514 10.125 27.5481 9.64433 26.8762C8.94388 25.8997 7.81271 25.3242 6.61096 25.333H5.39439C4.19272 25.324 3.06164 25.8994 2.36127 26.8758C1.88064 27.5478 1.88064 28.4511 2.36127 29.123C2.53326 29.3665 2.73525 29.5873 2.9624 29.7804C2.46277 30.0412 2.03097 30.4149 1.70116 30.872C1.21161 31.5437 1.21161 32.4546 1.70116 33.1263C1.87506 33.3691 2.07879 33.5892 2.30761 33.7812C1.56583 34.1131 0.924296 34.6342 0.447331 35.2922C-0.148459 36.1112 -0.148459 37.221 0.447331 38.04C1.32493 39.2662 2.78624 39.9985 4.3563 39.9985H34.0006C34.3688 39.9985 34.6673 39.7001 34.6673 39.3319V16.5623L38.7724 12.2293C40.4742 10.4333 40.3979 7.59766 38.6018 5.89578C37.7696 5.10726 36.6666 4.66771 35.5201 4.66779ZM15.828 1.3347H15.9165C15.8987 1.35012 15.8812 1.36595 15.8635 1.3817C15.8513 1.36637 15.8405 1.34987 15.828 1.3347ZM6.66929 4.66779V3.33456C6.67054 2.23055 7.56515 1.33595 8.66915 1.3347H10.1763C9.40584 2.26147 9.14428 3.50971 9.47792 4.66779H6.66929ZM10.669 3.66786C10.669 2.37929 11.7136 1.3347 13.0022 1.3347C14.2907 1.3347 15.3353 2.37929 15.3353 3.66786C15.3353 4.95644 14.2907 6.00103 13.0022 6.00103C11.7143 5.99953 10.6706 4.95585 10.669 3.66786ZM15.7419 14.0005H12.2558L7.75613 10.0008H15.6097L16.0019 10.7797V11.3341H16.0186L16.0081 13.7323C16.0089 13.8795 15.8903 13.9996 15.743 14.0005C15.7427 14.0004 15.7423 14.0005 15.7419 14.0005ZM20.47 4.66779C19.2324 4.66746 18.2288 5.67055 18.2285 6.90821C18.2283 7.50292 18.4645 8.07329 18.8851 8.49368L19.1165 8.72483C18.5757 9.33087 17.8555 9.74842 17.0608 9.91641L16.6186 9.03597L15.7715 7.3426C15.6251 7.03937 15.5173 6.71897 15.4505 6.38892C16.5113 5.44165 16.925 3.96434 16.5102 2.60394C17.2874 1.79108 18.3638 1.33228 19.4884 1.3347H20.6216C20.6369 1.3347 20.6528 1.33853 20.6682 1.33878V4.66779H20.47ZM24.1026 1.3347H31.3342C32.4382 1.33595 33.3328 2.23055 33.334 3.33456V4.66779H26.0063L25.7171 3.68678C25.4337 2.79101 24.854 1.97207 24.1026 1.3347ZM27.7475 14.0005H23.6014C23.455 13.9985 23.3367 13.8803 23.3347 13.7339V12.6673H24.6878C25.7918 12.6661 26.6865 11.7714 26.6877 10.6674V10.0008H32.2472L27.7475 14.0005ZM3.45145 27.6439C3.90175 27.0217 4.62636 26.6571 5.39439 26.6662H6.61096C7.37908 26.6572 8.10369 27.0217 8.55416 27.6439C8.70631 27.8565 8.70631 28.1423 8.55416 28.3549C8.10377 28.9772 7.37908 29.3418 6.61096 29.3327H5.39439C4.62628 29.3417 3.90166 28.9771 3.45119 28.3549C3.29912 28.1423 3.29929 27.8565 3.45145 27.6439ZM2.78549 31.6469C3.24979 31.0199 3.98766 30.6548 4.76777 30.6659H7.23759C8.01786 30.6547 8.75581 31.0202 9.21986 31.6476C9.37518 31.8565 9.37518 32.1425 9.21986 32.3514C8.75556 32.9784 8.0177 33.3434 7.23759 33.3324H4.76777C3.98749 33.3435 3.24954 32.9781 2.78549 32.3507C2.63017 32.1419 2.63017 31.8558 2.78549 31.6469ZM6.00268 38.6653H4.3563C3.21546 38.6653 2.15954 38.1413 1.53233 37.2644C1.27269 36.9076 1.27269 36.424 1.53233 36.0672C2.15954 35.1896 3.21546 34.6656 4.3563 34.6656H7.64906C8.78989 34.6656 9.84581 35.1896 10.473 36.0665C10.7327 36.4233 10.7327 36.9069 10.473 37.2637C9.84548 38.1413 8.78981 38.6653 7.64872 38.6653H6.00268ZM28.6677 23.9997C28.6656 24.9449 28.2628 25.8448 27.5594 26.4761L27.9647 23.6377L28.5269 23.0444C28.6203 23.3543 28.6677 23.6762 28.6677 23.9997ZM33.334 38.6653H29.1191L27.0178 33.4111C26.8012 32.8691 26.7304 32.2796 26.8127 31.7017L27.312 28.207C29.6291 27.1422 30.6444 24.4005 29.5795 22.0834C29.5641 22.0498 29.5483 22.0164 29.5321 21.9833L33.334 17.9697V38.6653Z" fill="#9D70A7"/>
<path d="M19.6676 19.3336C20.9562 19.3336 22.0008 18.289 22.0008 17.0004C22.0008 15.7118 20.9562 14.6672 19.6676 14.6672C18.3791 14.6672 17.3345 15.7118 17.3345 17.0004C17.3361 18.2883 18.3797 19.332 19.6676 19.3336ZM19.6676 16.0005C20.2198 16.0005 20.6676 16.4482 20.6676 17.0004C20.6676 17.5526 20.2198 18.0003 19.6676 18.0003C19.1154 18.0003 18.6677 17.5526 18.6677 17.0004C18.6684 16.4484 19.1157 16.0011 19.6676 16.0005Z" fill="#9D70A7"/>
<path d="M19.6676 25.3328C20.9562 25.3328 22.0008 24.2882 22.0008 22.9997C22.0008 21.7111 20.9562 20.6665 19.6676 20.6665C18.3791 20.6665 17.3345 21.7111 17.3345 22.9997C17.3361 24.2877 18.3797 25.3313 19.6676 25.3328ZM19.6676 21.9997C20.2198 21.9997 20.6676 22.4475 20.6676 22.9997C20.6676 23.5519 20.2198 23.9996 19.6676 23.9996C19.1154 23.9996 18.6677 23.5519 18.6677 22.9997C18.6684 22.4477 19.1157 22.0004 19.6676 21.9997Z" fill="#9D70A7"/>
<path d="M19.6676 31.3323C20.9562 31.3323 22.0008 30.2878 22.0008 28.9992C22.0008 27.7106 20.9562 26.666 19.6676 26.666C18.3791 26.666 17.3345 27.7106 17.3345 28.9992C17.3361 30.2872 18.3797 31.3308 19.6676 31.3323ZM19.6676 27.9993C20.2198 27.9993 20.6676 28.447 20.6676 28.9992C20.6676 29.5514 20.2198 29.9991 19.6676 29.9991C19.1154 29.9991 18.6677 29.5514 18.6677 28.9992C18.6684 28.4472 19.1157 27.9999 19.6676 27.9993Z" fill="#9D70A7"/>
<path d="M19.6676 37.3319C20.9562 37.3319 22.0008 36.2873 22.0008 34.9987C22.0008 33.7101 20.9562 32.6655 19.6676 32.6655C18.3791 32.6655 17.3345 33.7101 17.3345 34.9987C17.3361 36.2867 18.3797 37.3304 19.6676 37.3319ZM19.6676 33.9988C20.2198 33.9988 20.6676 34.4465 20.6676 34.9987C20.6676 35.5509 20.2198 35.9986 19.6676 35.9986C19.1154 35.9986 18.6677 35.5509 18.6677 34.9987C18.6684 34.4467 19.1157 33.9994 19.6676 33.9988Z" fill="#9D70A7"/>
</g>
<defs>
<clipPath id="clip0">
<rect width="40" height="40" fill="white"/>
</clipPath>
</defs>
</svg>
