<svg width="80" height="26" viewBox="0 0 80 26" fill="none" xmlns="http://www.w3.org/2000/svg">
<path d="M4.95466 15.1339C4.36045 14.5566 4.34668 13.607 4.92392 13.0128L14.3305 3.32951C14.9078 2.7353 15.8574 2.72153 16.4516 3.29877C17.0458 3.87601 17.0596 4.82565 16.4824 5.41987L8.12094 14.0272L16.7283 22.3886C17.3225 22.9659 17.3363 23.9155 16.759 24.5097C16.1818 25.104 15.2321 25.1177 14.6379 24.5405L4.95466 15.1339ZM79.0208 14.4998L6.02158 15.5578L5.9781 12.5581L78.9773 11.5002L79.0208 14.4998Z" fill="#D1D1D1"/>
<path d="M1.30305 9.77524C0.906909 9.39041 0.897734 8.75732 1.28256 8.36117L7.55363 1.90566C7.93846 1.50952 8.57155 1.50034 8.9677 1.88517C9.36384 2.26999 9.37302 2.90309 8.98819 3.29923L3.41391 9.03747L9.15214 14.6118C9.54828 14.9966 9.55746 15.6297 9.17263 16.0258C8.78781 16.422 8.15471 16.4311 7.75857 16.0463L1.30305 9.77524ZM75.0135 8.99989L2.01433 10.0579L1.98535 8.05806L74.9845 7.00011L75.0135 8.99989Z" fill="#9D70A7"/>
</svg>
