<svg width="11" height="13" viewBox="0 0 11 13" fill="none" xmlns="http://www.w3.org/2000/svg">
<path d="M5.67829 0C3.05 0 0.911621 1.94398 0.911621 4.33334C0.911621 5.05063 1.10889 5.76182 1.4839 6.39262L5.41762 12.8604C5.46999 12.9466 5.56978 13 5.67829 13C5.78679 13 5.88659 12.9466 5.93895 12.8604L9.87413 6.39049C10.2477 5.76182 10.445 5.0506 10.445 4.33332C10.445 1.94398 8.30658 0 5.67829 0ZM5.67829 6.5C4.36414 6.5 3.29497 5.52802 3.29497 4.33334C3.29497 3.13866 4.36414 2.16668 5.67829 2.16668C6.99243 2.16668 8.06161 3.13866 8.06161 4.33334C8.06161 5.52802 6.99243 6.5 5.67829 6.5Z" fill="#3C3939"/>
</svg>
