<svg width="32" height="32" viewBox="0 0 32 32" fill="none" xmlns="http://www.w3.org/2000/svg">
<g clip-path="url(#clip0)">
<path d="M7.0625 9.4126C7.0625 4.49855 11.0611 0.5 15.9751 0.5C20.8891 0.5 24.8877 4.49855 24.8877 9.4126V22.5874C24.8877 27.5014 20.8891 31.5 15.9751 31.5C11.0611 31.5 7.0625 27.5014 7.0625 22.5874V9.4126Z" stroke="white"/>
<path d="M15.9756 6.36572C15.4453 6.36572 15.0156 6.79541 15.0156 7.32568V11.7441C15.0156 12.2742 15.4453 12.7041 15.9756 12.7041C16.5056 12.7041 16.9355 12.2742 16.9355 11.7441V7.32568C16.9355 6.79541 16.5059 6.36572 15.9756 6.36572Z" fill="white"/>
</g>
<defs>
<clipPath id="clip0">
<rect width="32" height="32" fill="white"/>
</clipPath>
</defs>
</svg>
