<svg width="80" height="26" viewBox="0 0 80 26" fill="none" xmlns="http://www.w3.org/2000/svg">
<path d="M75.0444 15.1339C75.6386 14.5566 75.6523 13.607 75.0751 13.0128L65.6685 3.32951C65.0913 2.7353 64.1416 2.72153 63.5474 3.29877C62.9532 3.87601 62.9394 4.82565 63.5167 5.41987L71.8781 14.0272L63.2707 22.3886C62.6765 22.9659 62.6628 23.9155 63.24 24.5097C63.8172 25.104 64.7669 25.1177 65.3611 24.5405L75.0444 15.1339ZM0.978263 14.4998L73.9774 15.5578L74.0209 12.5581L1.02174 11.5002L0.978263 14.4998Z" fill="#D1D1D1"/>
<path d="M78.696 9.77524C79.0921 9.39041 79.1013 8.75732 78.7165 8.36117L72.4454 1.90566C72.0606 1.50952 71.4275 1.50034 71.0313 1.88517C70.6352 2.26999 70.626 2.90309 71.0108 3.29923L76.5851 9.03747L70.8469 14.6118C70.4507 14.9966 70.4416 15.6297 70.8264 16.0258C71.2112 16.422 71.8443 16.4311 72.2405 16.0463L78.696 9.77524ZM4.98551 8.99989L77.9847 10.0579L78.0137 8.05806L5.01449 7.00011L4.98551 8.99989Z" fill="#9D70A7"/>
</svg>
