<svg width="694" height="148" viewBox="0 0 694 148" fill="none" xmlns="http://www.w3.org/2000/svg">
<path d="M51.4 0.599988C59 0.599988 65.1333 1.33332 69.8 2.79999C74.6 4.13333 79.2667 6.06666 83.8 8.59999C85.2667 9.39999 86.5333 10.0667 87.6 10.6C88.8 11.1333 89.8 11.4 90.6 11.4C91.8 11.4 92.7333 10.7333 93.4 9.39999C94.0667 7.93333 94.6 5.66666 95 2.6H99.6C98.9333 12.2 98.6 28.4667 98.6 51.4H94C93.4667 43.8 91.7333 36.5333 88.8 29.6C85.8667 22.6667 81.8667 17 76.8 12.6C71.7333 8.19999 65.8667 5.99999 59.2 5.99999C53.0667 5.99999 48.1333 7.66666 44.4 11C40.6667 14.2 38.8 18.7333 38.8 24.6C38.8 29.1333 39.8 33.0667 41.8 36.4C43.8 39.7333 46.7333 43 50.6 46.2C54.4667 49.2667 60.8 53.8667 69.6 60C70.4 60.4 71.1333 60.8667 71.8 61.4C72.6 61.9333 73.3333 62.4667 74 63C81.3333 68.0667 87.2 72.6 91.6 76.6C96 80.4667 99.5333 85 102.2 90.2C105 95.4 106.4 101.4 106.4 108.2C106.4 116.867 103.933 124.2 99 130.2C94.2 136.067 87.6667 140.467 79.4 143.4C71.1333 146.333 62 147.8 52 147.8C43.8667 147.8 37.0667 147.133 31.6 145.8C26.2667 144.467 21.2667 142.667 16.6 140.4C13.6667 138.533 11.4 137.6 9.8 137.6C8.6 137.6 7.66667 138.333 7 139.8C6.33333 141.133 5.8 143.333 5.4 146.4H0.8C1.33333 137.333 1.6 118 1.6 88.4H6.2C7.13333 104.267 10.4667 117.133 16.2 127C21.9333 136.867 30.7333 141.8 42.6 141.8C49.9333 141.8 55.7333 140.067 60 136.6C64.4 133.133 66.6 128.333 66.6 122.2C66.6 114.6 64.2 108.133 59.4 102.8C54.7333 97.3333 47.4 91.2667 37.4 84.6C29.4 79.2667 23 74.6 18.2 70.6C13.4 66.6 9.46667 62 6.4 56.8C3.33333 51.4667 1.8 45.3333 1.8 38.4C1.8 30 4.06667 23 8.6 17.4C13.1333 11.6667 19.1333 7.46666 26.6 4.79999C34.2 1.99999 42.4667 0.599988 51.4 0.599988ZM141.856 113.4C148.256 113.4 153.123 114.867 156.456 117.8C159.923 120.733 161.656 125 161.656 130.6C161.656 136.2 159.923 140.467 156.456 143.4C153.123 146.333 148.256 147.8 141.856 147.8C135.456 147.8 130.523 146.333 127.056 143.4C123.723 140.467 122.056 136.2 122.056 130.6C122.056 125 123.723 120.733 127.056 117.8C130.523 114.867 135.456 113.4 141.856 113.4ZM249.777 0.599988C264.843 0.599988 278.043 3.46666 289.377 9.2C300.71 14.9333 309.51 23.2667 315.777 34.2C322.043 45 325.177 57.9333 325.177 73C325.177 87.6667 321.977 100.667 315.577 112C309.177 123.333 300.243 132.133 288.777 138.4C277.31 144.667 264.243 147.8 249.577 147.8C234.51 147.8 221.31 144.933 209.977 139.2C198.643 133.467 189.843 125.2 183.577 114.4C177.31 103.467 174.177 90.4667 174.177 75.4C174.177 60.7333 177.377 47.7333 183.777 36.4C190.177 25.0667 199.11 16.2667 210.577 10C222.043 3.73332 235.11 0.599988 249.777 0.599988ZM248.977 4.19999C242.443 4.19999 236.643 7.19999 231.577 13.2C226.643 19.0667 222.843 27.3333 220.177 38C217.51 48.6667 216.177 60.8667 216.177 74.6C216.177 88.4667 217.71 100.667 220.777 111.2C223.843 121.733 227.977 129.867 233.177 135.6C238.377 141.333 244.11 144.2 250.377 144.2C256.91 144.2 262.643 141.267 267.577 135.4C272.643 129.4 276.51 121.067 279.177 110.4C281.843 99.7333 283.177 87.5333 283.177 73.8C283.177 59.9333 281.643 47.7333 278.577 37.2C275.51 26.6667 271.377 18.5333 266.177 12.8C260.977 7.06666 255.243 4.19999 248.977 4.19999ZM356.895 113.4C363.295 113.4 368.162 114.867 371.495 117.8C374.962 120.733 376.695 125 376.695 130.6C376.695 136.2 374.962 140.467 371.495 143.4C368.162 146.333 363.295 147.8 356.895 147.8C350.495 147.8 345.562 146.333 342.095 143.4C338.762 140.467 337.095 136.2 337.095 130.6C337.095 125 338.762 120.733 342.095 117.8C345.562 114.867 350.495 113.4 356.895 113.4ZM553.223 3.99999C559.49 3.99999 564.623 3.79999 568.623 3.4V7.4C560.757 11.2667 554.557 20.6 550.023 35.4L516.423 145C512.157 144.733 508.623 144.6 505.823 144.6C503.157 144.6 499.69 144.733 495.423 145L469.423 65.6L441.223 145C436.957 144.733 433.423 144.6 430.623 144.6C427.957 144.6 424.49 144.733 420.223 145L373.823 20.2C372.223 15.9333 370.357 12.8 368.223 10.8C366.09 8.66666 364.023 7.53333 362.023 7.4V3.4C371.623 3.79999 383.423 3.99999 397.423 3.99999C409.557 3.99999 418.423 3.79999 424.023 3.4V7.4C420.423 8.06666 418.623 10.7333 418.623 15.4C418.623 18.2 419.223 21.1333 420.423 24.2L449.423 105.8L467.023 58.2L453.423 16.8C452.357 13.4667 451.023 11.1333 449.423 9.79999C447.823 8.46666 445.757 7.66666 443.223 7.4V3.4C452.157 3.79999 463.69 3.99999 477.823 3.99999C491.69 3.99999 502.023 3.79999 508.823 3.4V7.4C504.023 7.53333 500.557 8.13333 498.423 9.2C496.29 10.2667 495.223 12.2 495.223 15C495.223 17.5333 495.89 20.6 497.223 24.2L523.623 104.4L539.023 55C542.623 43.1333 544.423 33.8 544.423 27C544.423 20.3333 542.89 15.4667 539.823 12.4C536.89 9.33332 532.623 7.66666 527.023 7.4V3.4C537.023 3.79999 545.757 3.99999 553.223 3.99999ZM583.263 113.4C589.663 113.4 594.529 114.867 597.863 117.8C601.329 120.733 603.063 125 603.063 130.6C603.063 136.2 601.329 140.467 597.863 143.4C594.529 146.333 589.663 147.8 583.263 147.8C576.863 147.8 571.929 146.333 568.463 143.4C565.129 140.467 563.463 136.2 563.463 130.6C563.463 125 565.129 120.733 568.463 117.8C571.929 114.867 576.863 113.4 583.263 113.4ZM739.508 128.2C741.241 132.467 743.108 135.667 745.108 137.8C747.241 139.8 749.308 140.867 751.308 141V145C741.708 144.6 729.574 144.4 714.908 144.4C699.708 144.4 688.508 144.6 681.308 145V141C686.374 140.733 689.974 140.133 692.108 139.2C694.241 138.133 695.308 136.333 695.308 133.8C695.308 131.4 694.508 128.2 692.908 124.2L681.108 91.4H640.708L637.308 100.4C632.908 111.733 630.708 120.4 630.708 126.4C630.708 131.867 632.241 135.6 635.308 137.6C638.374 139.6 642.908 140.733 648.908 141V145C638.908 144.6 630.174 144.4 622.708 144.4C616.441 144.4 611.308 144.6 607.308 145V141C610.641 140.467 613.774 138.4 616.708 134.8C619.641 131.2 622.641 125.467 625.708 117.6L670.108 3.4C674.374 3.66666 677.908 3.79999 680.708 3.79999C683.374 3.79999 686.841 3.66666 691.108 3.4L739.508 128.2ZM679.708 87.4L661.508 37.4L642.308 87.4H679.708Z" fill="#FEF8FF"/>
</svg>
