<svg width="27" height="21" viewBox="0 0 27 21" fill="none" xmlns="http://www.w3.org/2000/svg">
<path d="M13.1507 19.8075H13.17H14.7325C14.7358 19.8068 14.7394 19.806 14.7433 19.8051C14.7751 19.7975 14.8205 19.7848 14.8704 19.7652C14.9792 19.7225 15.0634 19.6657 15.1084 19.6037L15.1088 19.6031C15.1481 19.549 15.1902 19.4253 15.2144 19.2568C15.225 19.1826 15.23 19.1152 15.2324 19.0666C15.2335 19.0426 15.234 19.0239 15.2341 19.0121L15.2342 18.9999L15.2342 18.9995L15.2342 18.9987L15.2342 18.9986L15.2342 18.9982L15.2342 18.998L15.2342 18.9957L15.2342 18.9883L15.2341 18.962C15.2341 18.9396 15.2343 18.9074 15.2349 18.8669C15.236 18.7858 15.2389 18.6708 15.2455 18.5318C15.2588 18.2553 15.2875 17.8782 15.3499 17.4841C15.4116 17.0944 15.51 16.6641 15.6722 16.2925C15.8282 15.9352 16.0843 15.5384 16.5168 15.3629L16.5169 15.3628C17.0502 15.1466 17.5244 15.4476 17.8287 15.7202C18.1545 16.0121 18.4762 16.438 18.7802 16.8698C18.918 17.0656 19.0494 17.2584 19.1802 17.4502C19.3566 17.7091 19.5318 17.9661 19.7197 18.226C20.0385 18.667 20.3431 19.0422 20.6352 19.2985L20.6354 19.2987C21.0798 19.6891 21.4471 19.8221 21.6773 19.8671C21.7944 19.8901 21.8819 19.8914 21.9331 19.8888C21.9587 19.8875 21.9754 19.8853 21.9822 19.8842C21.9822 19.8842 21.9822 19.8842 21.9822 19.8842L22.0278 19.8727L22.0856 19.8716L25.6589 19.808C25.6665 19.8071 25.6775 19.8056 25.6914 19.8034C25.7268 19.7979 25.779 19.7882 25.84 19.7718C25.9674 19.7377 26.1065 19.6822 26.215 19.5995C26.3151 19.5232 26.3834 19.4299 26.4079 19.2954C26.4343 19.1506 26.4208 18.8953 26.2261 18.4823L13.1507 19.8075ZM13.1507 19.8075L13.1338 19.8088L13.1333 19.8089L13.1326 19.8089L13.1321 19.809L13.1316 19.809H13.1311L13.1109 19.8099C13.0911 19.8107 13.0586 19.8114 13.0145 19.8112C12.9262 19.8106 12.7914 19.8058 12.6178 19.7879C12.2703 19.752 11.7681 19.6637 11.1708 19.4525C9.98119 19.032 8.39473 18.1173 6.89332 16.1184C5.22847 13.9017 3.64292 10.5641 2.46595 7.74931C1.88 6.34796 1.39978 5.0872 1.06611 4.17692C0.899326 3.7219 0.769272 3.35477 0.681051 3.1018C0.636944 2.97532 0.603301 2.8774 0.580762 2.81133L0.555363 2.73653L0.551121 2.72394L0.549473 2.71782C0.54647 2.70636 0.54192 2.68822 0.536758 2.66504C0.526243 2.61783 0.514164 2.55406 0.506775 2.48572C0.499185 2.41553 0.497968 2.35315 0.503133 2.30498C0.505226 2.28547 0.50788 2.27282 0.5097 2.26567C0.515384 2.26065 0.52628 2.25222 0.545199 2.24161C0.581589 2.2212 0.63124 2.20205 0.690093 2.18645C0.747543 2.17123 0.802617 2.1623 0.843686 2.15734C0.863748 2.15491 0.87927 2.15358 0.888587 2.15289L0.892929 2.15261M13.1507 19.8075L0.892929 2.15261M21.01 2.51744L21.0077 2.52529L20.9853 2.59986C20.9656 2.66461 20.9368 2.75867 20.8995 2.87713C20.825 3.11398 20.7169 3.44877 20.5818 3.84212C20.3122 4.62674 19.9323 5.6532 19.4952 6.6021L21.01 2.51744ZM21.01 2.51744C21.0127 2.51059 21.0167 2.50084 21.0218 2.48882C21.0342 2.45946 21.0525 2.41888 21.0755 2.37514C21.1296 2.27248 21.1776 2.21427 21.1973 2.19882C21.2045 2.19354 21.2288 2.18144 21.2778 2.17755C21.2993 2.17584 21.3181 2.1764 21.3301 2.17725C21.3333 2.17748 21.3358 2.17771 21.3374 2.17788L21.3746 2.18438L21.4199 2.18402L25.4675 2.15177L25.5034 2.15149L25.5374 2.14629L25.5377 2.14625L25.5379 2.14621L25.5384 2.14615L25.5386 2.14611L25.5389 2.14607L25.5429 2.14554C25.5484 2.14481 25.5579 2.14361 25.5708 2.14219C25.5967 2.13934 25.6358 2.13566 25.684 2.13302C25.7824 2.12762 25.9086 2.12711 26.0337 2.14286C26.334 2.18063 26.3858 2.27035 26.3951 2.30304C26.4169 2.38086 26.4279 2.53905 26.3756 2.81361C26.3248 3.08094 26.2214 3.4213 26.0551 3.84151C25.7225 4.68172 25.1583 5.79132 24.3372 7.19086L24.7684 7.44389L24.3372 7.19086C24.0023 7.76167 23.6955 8.26944 23.4262 8.71516C23.1632 9.15036 22.936 9.52639 22.7533 9.84417C22.3803 10.493 22.1132 11.0276 22.0302 11.5295C21.9393 12.0791 22.0737 12.5404 22.3638 13.0211C22.6219 13.4486 23.0287 13.9311 23.5403 14.538C23.5675 14.5704 23.5951 14.6031 23.623 14.6362C24.6851 15.8968 25.3189 16.8252 25.6932 17.4491C26.004 17.9672 26.1343 18.2704 26.1962 18.4145C26.2085 18.4431 26.2181 18.4655 26.2259 18.482L21.01 2.51744ZM0.892929 2.15261L4.65949 2.12104C4.68322 2.12837 4.7143 2.13893 4.74942 2.15315C4.84078 2.19014 4.93486 2.242 5.00321 2.30613L5.34534 1.94151M0.892929 2.15261L4.72338 1.62048C4.72338 1.62048 5.08589 1.69805 5.34534 1.94151M5.34534 1.94151C5.55912 2.14245 5.67898 2.51815 5.67898 2.51815M5.34534 1.94151L5.0029 2.30584C5.04179 2.34239 5.09309 2.41976 5.1409 2.52015C5.16222 2.56491 5.17865 2.6053 5.18952 2.63391C5.19489 2.64805 5.19873 2.65884 5.20096 2.66529L5.20276 2.67056M5.67898 2.51815L5.20132 2.66593L5.20136 2.66606L5.20148 2.66644L5.20189 2.66777L5.20276 2.67056M5.67898 2.51815C5.67898 2.51815 6.30058 4.52845 7.1239 6.34715L6.6684 6.55335M5.67898 2.51815C5.20264 2.67012 5.20266 2.6702 5.20269 2.67028L5.20274 2.67044L5.20283 2.67073L5.20298 2.67121L5.20276 2.67056M5.20276 2.67056L5.20338 2.67258L5.20905 2.6907L5.2308 2.75957C5.24983 2.81944 5.2778 2.90652 5.31388 3.01651C5.38601 3.23644 5.49069 3.54827 5.62134 3.91745C5.88212 4.65431 6.24865 5.62612 6.6684 6.55335M6.6684 6.55335C7.47191 8.32883 8.08111 9.45896 8.57658 10.1003C8.82062 10.4162 9.07869 10.6698 9.36784 10.7955C9.5214 10.8623 9.68886 10.8952 9.86329 10.8762C10.0369 10.8574 10.1866 10.7905 10.3107 10.7041L10.3108 10.7039C10.5317 10.5498 10.6604 10.3079 10.7415 10.1035C10.8282 9.88519 10.8913 9.62928 10.9391 9.36428C11.0348 8.83265 11.0806 8.1947 11.1007 7.59308C11.1211 6.98778 11.116 6.4023 11.1059 5.96936C11.1009 5.75251 11.0946 5.57308 11.0895 5.4475C11.087 5.38469 11.0848 5.33531 11.0832 5.30139L11.0813 5.26282L11.0813 5.25658C11.0813 5.24304 11.0813 5.2237 11.081 5.19918C11.0806 5.15017 11.0795 5.08031 11.0768 4.99458C11.0715 4.82359 11.0598 4.58713 11.0344 4.32582C10.9863 3.83185 10.8812 3.14725 10.6146 2.68345C10.3503 2.22344 9.95289 1.96889 9.61244 1.82796C9.68499 1.74696 9.76825 1.67235 9.85117 1.62042L9.85128 1.62035C10.0987 1.46536 10.4844 1.36029 11.0335 1.30467C11.5745 1.24988 12.2151 1.24776 12.9379 1.25735L12.9381 1.25735C14.0211 1.2713 14.2967 1.35505 14.6858 1.47529L14.6859 1.47533C14.9076 1.54377 15.0156 1.64207 15.0904 1.77959C15.1808 1.94563 15.244 2.20998 15.2694 2.64937C15.2945 3.08316 15.2808 3.62568 15.2592 4.31917C15.2575 4.37412 15.2557 4.42993 15.2539 4.48658C15.2334 5.13729 15.2094 5.90009 15.2094 6.7808C15.2094 6.95535 15.2052 7.15192 15.2008 7.36004C15.1911 7.8216 15.1801 8.34001 15.2106 8.80125C15.2332 9.14466 15.2798 9.493 15.3766 9.80486C15.4726 10.1144 15.6308 10.4288 15.905 10.6555L15.9053 10.6558C16.1068 10.822 16.3868 10.8948 16.6946 10.7908C16.9571 10.7021 17.2023 10.4975 17.4447 10.2176C17.9362 9.65038 18.5911 8.56524 19.4951 6.60214L6.6684 6.55335ZM15.2342 18.999C15.2342 18.9991 15.2342 18.9992 15.7342 18.9935L15.2342 18.9992L15.2342 18.999L15.2342 18.999ZM0.553063 2.73108L0.552662 2.72971L0.552715 2.72989L0.552809 2.73021L0.552952 2.7307C0.553027 2.73096 0.553064 2.73108 0.553063 2.73108ZM21.0059 2.52833C21.0058 2.52843 21.0058 2.52842 21.0059 2.52829L21.0059 2.52833Z" fill="white" stroke="white"/>
</svg>
